<svg width="960" height="633" viewBox="0 0 960 633" fill="none" xmlns="http://www.w3.org/2000/svg">
<rect width="960" height="633" fill="black"/>
<path fill-rule="evenodd" clip-rule="evenodd" d="M490.879 184H452.303L398.037 264.384L417.266 292.984L434.914 266.856H466.363L432.956 316.169L452.185 344.769L504.954 266.856H558.829L541.841 241.552H452.006L490.879 184ZM561.07 184H522.494L487.971 234.961H526.555L561.07 184Z" fill="white"/>
<path d="M691.238 440.052L694.331 437.059H737.437L737.936 436.56V422.391L737.437 421.892H702.613L691.238 410.517V392.157L702.613 380.782H752.005V391.359L748.912 394.352H707.802L707.303 394.851V409.02L707.802 409.519H742.626L754.001 420.894V439.254L742.626 450.629H691.238V440.052Z" fill="white"/>
<path d="M682.531 450.629H665.568L651.499 429.974H629.348V450.629H613.283V380.782H669.161L680.536 392.157V418.799L669.36 429.974H668.462L682.531 450.629ZM629.348 394.352V417.601H664.172L664.471 417.402V394.851L663.972 394.352H629.348Z" fill="white"/>
<path d="M515.549 380.782H531.614V450.629H515.549V380.782Z" fill="white"/>
<path d="M438.277 380.782H494.155L505.53 392.157V439.254L494.155 450.629H438.277V380.782ZM488.966 437.059L489.465 436.56V394.851L488.966 394.352H454.342V437.059H488.966Z" fill="white"/>
<path d="M361.006 450.629V380.782H374.776L412.194 425.185V380.782H428.258V450.629H414.489L377.071 406.226V450.629H361.006Z" fill="white"/>
<path d="M297.538 380.782H335.755L353.516 450.629H337.75L333.26 432.868H300.033L295.543 450.629H279.777L297.538 380.782ZM330.466 420.495L323.581 394.352H309.712L302.827 420.495H330.466Z" fill="white"/>
<path d="M205 380.782H221.065V409.519H256.188V380.782H272.252V450.629H256.188V421.892H221.065V450.629H205V380.782Z" fill="white"/>
<path fill-rule="evenodd" clip-rule="evenodd" d="M541.566 380.782H603.331V391.359L600.299 394.293H541.566V380.782ZM541.566 409.734H594.45V422.074H541.566V409.734ZM541.566 437.062V450.629H600.238L603.331 447.536V437.062H541.566Z" fill="white"/>
</svg>
